:SAMPLES-PER-SECOND 30
:FULLY-SPECIFIED
:DEGREES
310
root  -5.95039 34.3817 -16.2147 -152.219 84.7914 -156.813
RightUpLeg  -10.9493 -12.3907 2.88621
RightLeg  11.514 -2.24439 -0.307599
RightFoot  0.47128 -0.00260612 0.107755
RightToes  -27.5548 -0.12745 -0.234617
Spine  -0.91615 -0.900943 3.33598
Spine1  -1.91887 -1.7447 7.14846
HEad  -62.2679 -3.9002 22.5922
LeftShoulder1  -1.94126e-019 -3.10601e-018 -2.51263e-017
LeftArm  -7.40653 20.4415 -85.5511
LeftForeArm  31.7788 -28.746 -4.60824
LeftHand  -0.383982 -1.34174 6.77756
RightShoulder  -4.96962e-017 0 -2.36833e-017
RightArm  -31.5877 -24.2555 71.2876
RightForeArm  49.3514 16.438 1.23456
RightHand  -0.23395 -1.78488 -7.32762
LeftUpLeg  -10.7978 9.85011 7.66117
LeftLeg  20.3666 13.7629 4.07576
LeftFoot  1.7304 -0.00319507 0.52408
LeftToes  -22.2576 1.46665e-006 1.03344e-007
311
root  -6.02422 34.4157 -16.4031 -149.414 85.3175 -153.907
RightUpLeg  -10.6753 -12.1601 2.56871
RightLeg  10.8794 -1.95397 -0.245613
RightFoot  0.89552 -0.0042545 0.102528
RightToes  -28.6763 -0.134913 -0.242662
Spine  -0.883886 -0.853065 3.27309
Spine1  -1.83854 -1.61053 7.02995
HEad  -62.1423 -4.06025 22.4011
LeftShoulder1  -1.94126e-019 -3.10601e-018 -2.51263e-017
LeftArm  -7.93336 20.3434 -85.6233
LeftForeArm  31.7603 -28.1288 -4.50237
LeftHand  -0.390138 -0.835119 7.40084
RightShoulder  -4.96962e-017 0 -2.36833e-017
RightArm  -29.8927 -23.6721 71.4001
RightForeArm  48.8956 17.9947 1.47405
RightHand  -0.245223 -1.6118 -7.36319
LeftUpLeg  -10.4573 9.29775 7.2879
LeftLeg  20.0362 14.8915 4.30994
LeftFoot  1.75799 -0.00656267 0.582484
LeftToes  -21.3422 1.46665e-006 1.03344e-007
312
root  -6.1003 34.4532 -16.5928 -146.944 85.7522 -151.354
RightUpLeg  -10.4346 -12.1216 2.22703
RightLeg  10.2736 -1.60541 -0.184371
RightFoot  1.24397 -0.00614388 0.103465
RightToes  -29.7686 -0.14233 -0.250354
Spine  -0.8709 -0.827814 3.17953
Spine1  -1.80218 -1.53462 6.86045
HEad  -61.8851 -4.20531 22.3113
LeftShoulder1  -1.94126e-019 -3.10601e-018 -2.51263e-017
LeftArm  -7.97381 20.5164 -85.5312
LeftForeArm  31.6518 -27.7532 -4.42684
LeftHand  -0.380971 -1.35819 6.71042
RightShoulder  -4.96962e-017 0 -2.36833e-017
RightArm  -28.7377 -23.1606 71.5447
RightForeArm  48.4914 19.3381 1.73464
RightHand  -0.249842 -1.62746 -7.53602
LeftUpLeg  -10.0988 8.42643 6.8568
LeftLeg  19.5684 16.2859 4.56047
LeftFoot  1.75424 -0.0102924 0.639853
LeftToes  -20.5999 1.46665e-006 1.03344e-007
313
root  -6.1815 34.4883 -16.7857 -144.618 86.1427 -148.951
RightUpLeg  -10.2297 -12.1619 1.85641
RightLeg  9.7307 -1.1883 -0.124783
RightFoot  1.50001 -0.00824047 0.110204
RightToes  -31.009 -0.15093 -0.258917
Spine  -0.862656 -0.786508 3.05043
Spine1  -1.77857 -1.43886 6.62222
HEad  -61.6732 -4.34486 22.2356
LeftShoulder1  -1.94126e-019 -3.10601e-018 -2.51263e-017
LeftArm  -7.70958 20.8562 -85.2818
LeftForeArm  31.6347 -27.5321 -4.37042
LeftHand  -0.387635 -1.30685 6.87353
RightShoulder  -4.96962e-017 0 -2.36833e-017
RightArm  -28.4193 -22.6529 71.8211
RightForeArm  48.4389 20.2002 1.89494
RightHand  -0.259354 -1.50257 -7.59567
LeftUpLeg  -9.73895 7.79528 6.41103
LeftLeg  19.0347 17.3729 4.68407
LeftFoot  1.61515 -0.0107666 0.639755
LeftToes  -19.7059 1.46665e-006 1.03344e-007
314
root  -6.26668 34.5253 -16.9984 -144.002 86.6596 -148.282
RightUpLeg  -10.1624 -12.2905 1.27783
RightLeg  9.41631 -0.679353 -0.0671147
RightFoot  1.41019 -0.010791 0.126393
RightToes  -32.3053 -0.160114 -0.267665
Spine  -0.853296 -0.714343 2.8316
Spine1  -1.75552 -1.28958 6.20153
HEad  -61.6345 -4.42417 22.2227
LeftShoulder1  -1.94126e-019 -3.10601e-018 -2.51263e-017
LeftArm  -7.41509 21.3163 -84.9097
LeftForeArm  31.5258 -27.2894 -4.31258
LeftHand  -0.38597 -1.28707 6.85852
RightShoulder  -4.96962e-017 0 -2.36833e-017
RightArm  -27.9141 -22.1643 72.2032
RightForeArm  47.9743 20.5809 1.98496
RightHand  -0.262452 -1.53935 -7.75817
LeftUpLeg  -9.24408 7.77429 5.7668
LeftLeg  18.1674 17.9456 4.5487
LeftFoot  1.53052 -0.0113178 0.633785
LeftToes  -18.6698 1.46665e-006 1.03344e-007
315
root  -6.35763 34.5594 -17.2261 -145.841 87.0697 -150.139
RightUpLeg  -10.1956 -12.6092 0.632955
RightLeg  9.16294 -0.129432 -0.0113382
RightFoot  1.31643 -0.0129772 0.14046
RightToes  -33.5088 -0.168815 -0.275598
Spine  -0.866877 -0.639082 2.58005
Spine1  -1.78106 -1.13868 5.71328
HEad  -61.8932 -4.53384 22.1829
LeftShoulder1  -1.94126e-019 -3.10601e-018 -2.51263e-017
LeftArm  -7.29489 21.7765 -84.5525
LeftForeArm  31.5063 -26.7932 -4.21722
LeftHand  -0.384358 -1.32707 6.79769
RightShoulder  -4.96962e-017 0 -2.36833e-017
RightArm  -27.3689 -21.8979 72.5823
RightForeArm  48.1171 20.753 2.01074
RightHand  -0.266157 -1.52997 -7.60596
LeftUpLeg  -8.78333 8.06068 5.05228
LeftLeg  17.0692 18.1313 4.23352
LeftFoot  1.19272 -0.00585304 0.527042
LeftToes  -17.7355 1.46665e-006 1.03344e-007
316
root  -6.46662 34.5956 -17.4669 -151.367 87.2984 -155.762
RightUpLeg  -10.324 -12.8561 -0.060905
RightLeg  8.92615 0.135584 0.0135254
RightFoot  1.28983 -0.0144578 0.147653
RightToes  -34.2509 -0.174262 -0.280398
Spine  -0.904514 -0.572063 2.31232
Spine1  -1.85678 -1.00831 5.19503
HEad  -62.4158 -4.71126 22.123
LeftShoulder1  -1.94126e-019 -3.10601e-018 -2.51263e-017
LeftArm  -7.3954 22.1408 -84.2682
LeftForeArm  31.5977 -25.8514 -4.0585
LeftHand  -0.388908 -1.36581 6.84019
RightShoulder  -4.96962e-017 0 -2.36833e-017
RightArm  -26.669 -21.8086 72.9642
RightForeArm  48.1239 20.6923 1.99921
RightHand  -0.262503 -1.52533 -7.64525
LeftUpLeg  -8.49005 7.9221 4.22885
LeftLeg  16.0299 18.3888 3.94835
LeftFoot  0.984432 -0.00365486 0.463593
LeftToes  -17.2299 1.46665e-006 1.03344e-007
317
root  -6.57556 34.6249 -17.714 -158.619 87.2488 -163.152
RightUpLeg  -10.5012 -13.3052 -0.710484
RightLeg  8.76221 0.370427 0.0340094
RightFoot  1.19414 -0.0155726 0.152948
RightToes  -34.7178 -0.177721 -0.283662
Spine  -0.969734 -0.517386 2.05796
Spine1  -1.98823 -0.904828 4.70218
HEad  -63.051 -5.12104 21.8712
LeftShoulder1  -1.94126e-019 -3.10601e-018 -2.51263e-017
LeftArm  -7.64974 22.4613 -84.0647
LeftForeArm  31.8009 -24.6577 -3.89192
LeftHand  -0.395133 -1.34002 6.97196
RightShoulder  -4.96962e-017 0 -2.36833e-017
RightArm  -26.1091 -21.9437 73.3317
RightForeArm  48.1798 20.4475 1.95155
RightHand  -0.260633 -1.49117 -7.61328
LeftUpLeg  -8.33147 7.29007 3.41739
LeftLeg  15.1042 18.924 3.74691
LeftFoot  0.751922 -0.00152149 0.393474
LeftToes  -15.9924 1.46665e-006 1.03344e-007
318
root  -6.68556 34.6405 -17.963 -165.297 87.0147 -169.947
RightUpLeg  -10.7655 -13.993 -1.32293
RightLeg  8.85686 0.703402 0.0647644
RightFoot  0.969128 -0.0161086 0.153425
RightToes  -35.1042 -0.181367 -0.28583
Spine  -1.01344 -0.489949 1.81773
Spine1  -2.07828 -0.856862 4.23141
HEad  -63.7996 -5.56176 21.6016
LeftShoulder1  -1.94126e-019 -3.10601e-018 -2.51263e-017
LeftArm  -8.13039 22.742 -83.8876
LeftForeArm  32.1189 -23.3715 -3.72912
LeftHand  -0.393092 -0.80236 7.49276
RightShoulder  -4.96962e-017 0 -2.36833e-017
RightArm  -25.3312 -22.1499 73.6758
RightForeArm  48.0496 20.0686 1.88722
RightHand  -0.259253 -1.51565 -7.61669
LeftUpLeg  -8.33869 6.91386 2.6821
LeftLeg  14.5042 19.108 3.57882
LeftFoot  0.474636 -0.000566996 0.298514
LeftToes  -15.3384 1.46665e-006 1.03344e-007
319
root  -6.79447 34.6427 -18.2128 -170.902 86.5815 -175.641
RightUpLeg  -11.0575 -14.391 -1.96102
RightLeg  9.14833 0.62078 0.0604527
RightFoot  0.668488 -0.0162527 0.151874
RightToes  -35.5852 -0.184211 -0.287358
Spine  -1.0391 -0.468561 1.57897
Spine1  -2.13385 -0.822113 3.75564
HEad  -64.5395 -6.15157 21.3274
LeftShoulder1  -1.94126e-019 -3.10601e-018 -2.51263e-017
LeftArm  -8.61297 22.9241 -83.7102
LeftForeArm  32.4779 -21.9812 -3.56297
LeftHand  -0.385126 -1.29439 6.84167
RightShoulder  -4.96962e-017 0 -2.36833e-017
RightArm  -25.4373 -22.3625 74.217
RightForeArm  48.71 19.3794 1.73299
RightHand  -0.271172 -1.41314 -7.78353
LeftUpLeg  -8.48925 6.62445 1.98733
LeftLeg  14.2564 19.0754 3.48942
LeftFoot  -0.215356 -0.000201857 0.0540509
LeftToes  -15.0677 1.46665e-006 1.03344e-007
320
root  -6.89524 34.6378 -18.4689 -175.96 86.0701 179.187
RightUpLeg  -11.5092 -15.1137 -2.65801
RightLeg  9.74907 0.83559 0.0898053
RightFoot  0.351692 -0.0160645 0.149271
RightToes  -36.057 -0.185876 -0.288789
Spine  -1.06047 -0.44883 1.33065
Spine1  -2.18075 -0.793646 3.26081
HEad  -65.1957 -6.78809 20.9893
LeftShoulder1  -1.94126e-019 -3.10601e-018 -2.51263e-017
LeftArm  -9.15166 23.1312 -83.5376
LeftForeArm  33.1445 -20.632 -3.39728
LeftHand  -0.397685 -1.21771 7.13599
RightShoulder  -4.96962e-017 0 -2.36833e-017
RightArm  -25.7987 -22.6071 74.7825
RightForeArm  49.1204 18.5576 1.56644
RightHand  -0.271961 -1.4449 -7.86594
LeftUpLeg  -8.67494 6.34892 1.22935
LeftLeg  14.0325 18.9715 3.39619
LeftFoot  -0.867173 -0.00254451 -0.174689
LeftToes  -14.4444 1.46665e-006 1.03344e-007
